<svg width="17" height="16" viewBox="0 0 17 16" fill="none" xmlns="http://www.w3.org/2000/svg">
<path d="M12.5 12.5733H11.9933C11.46 12.5733 10.9533 12.78 10.58 13.1533L9.43998 14.28C8.91998 14.7933 8.07334 14.7933 7.55334 14.28L6.41333 13.1533C6.04 12.78 5.52667 12.5733 5 12.5733H4.5C3.39333 12.5733 2.5 11.6867 2.5 10.5934V3.32001C2.5 2.22667 3.39333 1.34003 4.5 1.34003H12.5C13.6067 1.34003 14.5 2.22667 14.5 3.32001V10.5934C14.5 11.68 13.6067 12.5733 12.5 12.5733Z" stroke="#FB5F66" stroke-miterlimit="10" stroke-linecap="round" stroke-linejoin="round"/>
<path d="M8.5 6.66665C9.35788 6.66665 10.0533 5.97118 10.0533 5.1133C10.0533 4.25542 9.35788 3.56 8.5 3.56C7.64212 3.56 6.94666 4.25542 6.94666 5.1133C6.94666 5.97118 7.64212 6.66665 8.5 6.66665Z" stroke="#FB5F66" stroke-linecap="round" stroke-linejoin="round"/>
<path d="M11.1666 10.44C11.1666 9.23996 9.97331 8.26666 8.49998 8.26666C7.02665 8.26666 5.83331 9.23996 5.83331 10.44" stroke="#FB5F66" stroke-linecap="round" stroke-linejoin="round"/>
</svg>
